# xmcd
#
# Track frame offsets:
#	150
#	19745
#	36857
#	49942
#	63120
#	74972
#	89380
#	105075
#	120155
#	133972
#	147927
#	159737
#
# Disc length: 2332 seconds
#
# Revision: 5
# Processed by: cddbd v1.5.2PL0 Copyright (c) Steve Scherf et al.
# Submitted via: audiograbber 1.83.01
#
DISCID=a6091a0c
DTITLE=Various Artist - New Country - April 1995
DYEAR=1995
DGENRE=Country
TTITLE0=Guy Clark - Dublin Blues
TTITLE1=Alison Kraus - Baby, Now That I've Found You
TTITLE2=Hal Ketchum - Stay Forever
TTITLE3=Kieran Kane - This Dirty Little Town
TTITLE4=Radney Foster - Willin' To Walk
TTITLE5=Aaron Tippin - Mission From Hank
TTITLE6=Wesley Dennis - I Don't Know (But I've Been Told)
TTITLE7=Carrie Newcomer - Holy Ground
TTITLE8=Neil McCoy - Plain Jane
TTITLE9=Ronnie Bowman - The Healing Kind
TTITLE10=Donna B - Knock, Knock
TTITLE11=Robert Earl Keen - The Armadillo Jackal
EXTD=
EXTT0=GUY CLARK
EXTT1=ALIISON KRAUSS
EXTT2=HAL KETCHUM
EXTT3=KIERAN KANE
EXTT4=RADNEY FOSTER
EXTT5=AARON TIPPIN
EXTT6=WESLEY DENNIS
EXTT7=CARRIE NEWCOMER
EXTT8=NEAL McCOY
EXTT9=RONNIE BOWMAN
EXTT10=DONNA B
EXTT11=ROBERT EARL KEEN
PLAYORDER=
